<svg width="30" height="30" viewBox="0 0 30 30" fill="none" xmlns="http://www.w3.org/2000/svg">
<path d="M0 15C0.826103 35.0077 29.1811 34.9923 29.9999 15C29.1792 -4.997 0.823893 -5.003 0 15Z" fill="#D43C89"/>
<path d="M18.9382 14.5904C23.4419 14.0261 27.9104 14.9293 28.3537 15.0278C28.3326 11.8248 27.1856 8.88255 25.3067 6.57571C25.0181 6.96382 22.7523 9.8776 17.7559 11.9236C18.1856 12.7911 18.5769 13.6917 18.9382 14.5904Z" fill="#B2005F"/>
<path d="M23.962 5.09181C21.5766 2.96118 18.438 1.66992 14.9968 1.66992C13.9061 1.67687 12.8434 1.81108 11.8301 2.05108C12.203 2.55192 14.6589 5.91033 16.8757 9.98811C21.689 8.18212 23.7227 5.4376 23.962 5.09181Z" fill="#B2005F"/>
<path d="M14.471 10.8085C12.2334 6.81538 9.81251 3.45697 9.45378 2.96307C5.67474 4.75517 2.83895 8.25443 1.96643 12.4595C2.57148 12.4664 8.14483 12.4876 14.471 10.8085Z" fill="#B2005F"/>
<path d="M16.049 15.1067C16.2236 15.0505 16.3983 14.9946 16.5798 14.9457C16.2445 14.1824 15.8744 13.4119 15.49 12.6625C8.79091 14.6725 2.28029 14.5885 1.69356 14.5816C1.57419 18.1437 2.90682 21.5236 5.13755 23.9877C5.44481 23.4622 9.12627 17.3479 16.049 15.1067Z" fill="#B2005F"/>
<path d="M17.3242 17.1909C9.93629 19.7738 7.2783 24.9123 7.04651 25.3907C10.5154 28.2338 16.0294 29.0147 20.2004 27.1197C20.0027 25.9648 19.2461 21.9537 17.406 17.1638C17.3788 17.1774 17.3447 17.1843 17.3242 17.1909Z" fill="#B2005F"/>
<path d="M20.0008 16.53C21.719 21.2722 22.4172 25.1289 22.5609 25.932C25.5044 23.928 27.6056 20.7644 28.1942 17.0927C27.7424 16.9484 24.1215 15.871 20.0008 16.53Z" fill="#B2005F"/>
</svg>
