<svg width="30" height="30" viewBox="0 0 30 30" fill="none" xmlns="http://www.w3.org/2000/svg">
<path d="M7.60722 29.8939C5.8231 29.8128 4.85392 29.5159 4.20929 29.2644C3.35513 28.9319 2.74616 28.536 2.10509 27.8958C1.46402 27.2556 1.06726 26.6467 0.73647 25.7925C0.485036 25.1479 0.18813 24.1787 0.106993 22.3946C0.0178322 20.466 0 19.8874 0 15.0013C0 10.1153 0.0196154 9.53755 0.106102 7.60722C0.187238 5.8231 0.485927 4.85571 0.735578 4.20929C1.06815 3.35513 1.46492 2.74616 2.1042 2.1042C2.74438 1.46402 3.35335 1.06637 4.2084 0.735578C4.85303 0.484144 5.82221 0.187238 7.60632 0.106102C9.53577 0.0178322 10.1153 0 14.9996 0C19.8856 0 20.4633 0.0196154 22.3937 0.106102C24.1778 0.187238 25.1452 0.485927 25.7916 0.735578C26.6458 1.06637 27.2547 1.46402 27.8958 2.1042C28.5369 2.74438 28.9319 3.35424 29.2644 4.2084C29.5159 4.85303 29.8128 5.82221 29.8939 7.60632C29.9822 9.53666 30 10.1144 30 15.0004C30 19.8847 29.9822 20.4642 29.8939 22.3946C29.8128 24.1787 29.5141 25.1479 29.2644 25.7925C28.9319 26.6467 28.536 27.2556 27.8958 27.8958C27.2556 28.536 26.6458 28.9319 25.7916 29.2644C25.147 29.5159 24.1778 29.8128 22.3937 29.8939C20.4651 29.9822 19.8856 30 14.9996 30C10.1153 30 9.53577 29.9831 7.60722 29.8939Z" fill="url(#paint0_radial_5_77)"/>
<path d="M7.60722 29.8939C5.8231 29.8128 4.85392 29.5159 4.20929 29.2644C3.35513 28.9319 2.74616 28.536 2.10509 27.8958C1.46402 27.2556 1.06726 26.6467 0.73647 25.7925C0.485036 25.1479 0.18813 24.1787 0.106993 22.3946C0.0178322 20.466 0 19.8874 0 15.0013C0 10.1153 0.0196154 9.53755 0.106102 7.60722C0.187238 5.8231 0.485927 4.85571 0.735578 4.20929C1.06815 3.35513 1.46492 2.74616 2.1042 2.1042C2.74438 1.46402 3.35335 1.06637 4.2084 0.735578C4.85303 0.484144 5.82221 0.187238 7.60632 0.106102C9.53577 0.0178322 10.1153 0 14.9996 0C19.8856 0 20.4633 0.0196154 22.3937 0.106102C24.1778 0.187238 25.1452 0.485927 25.7916 0.735578C26.6458 1.06637 27.2547 1.46402 27.8958 2.1042C28.5369 2.74438 28.9319 3.35424 29.2644 4.2084C29.5159 4.85303 29.8128 5.82221 29.8939 7.60632C29.9822 9.53666 30 10.1144 30 15.0004C30 19.8847 29.9822 20.4642 29.8939 22.3946C29.8128 24.1787 29.5141 25.1479 29.2644 25.7925C28.9319 26.6467 28.536 27.2556 27.8958 27.8958C27.2556 28.536 26.6458 28.9319 25.7916 29.2644C25.147 29.5159 24.1778 29.8128 22.3937 29.8939C20.4651 29.9822 19.8856 30 14.9996 30C10.1153 30 9.53577 29.9831 7.60722 29.8939Z" fill="url(#paint1_radial_5_77)"/>
<path d="M11.3168 15.0639C11.3168 13.0122 12.9795 11.3486 15.0312 11.3486C17.0829 11.3486 18.7465 13.0122 18.7465 15.0639C18.7465 17.1156 17.0829 18.7793 15.0312 18.7793C12.9795 18.7793 11.3168 17.1156 11.3168 15.0639ZM9.30832 15.0639C9.30832 18.2247 11.8704 20.7868 15.0312 20.7868C18.192 20.7868 20.7541 18.2247 20.7541 15.0639C20.7541 11.9032 18.192 9.34103 15.0312 9.34103C11.8704 9.34103 9.3084 11.903 9.3084 15.0639M19.6433 9.11412C19.6432 9.37863 19.7216 9.63724 19.8684 9.85723C20.0153 10.0772 20.2241 10.2487 20.4684 10.3501C20.7128 10.4514 20.9817 10.478 21.2411 10.4265C21.5006 10.375 21.7389 10.2477 21.9261 10.0607C22.1132 9.87376 22.2406 9.6355 22.2924 9.37609C22.3441 9.11668 22.3177 8.84776 22.2166 8.60334C22.1154 8.35892 21.9441 8.14997 21.7242 8.00293C21.5043 7.85588 21.2458 7.77734 20.9813 7.77724H20.9807C20.6262 7.7774 20.2862 7.91829 20.0354 8.16895C19.7847 8.41961 19.6436 8.75955 19.6433 9.11412ZM10.5286 24.1359C9.44197 24.0864 8.85137 23.9054 8.45888 23.7525C7.93853 23.5499 7.56727 23.3086 7.17692 22.9188C6.78657 22.529 6.54495 22.1581 6.34327 21.6378C6.19027 21.2455 6.00927 20.6547 5.95987 19.5681C5.90584 18.3933 5.89505 18.0404 5.89505 15.0641C5.89505 12.0878 5.90673 11.7359 5.95987 10.5601C6.00936 9.47352 6.19169 8.8839 6.34327 8.49043C6.54584 7.97009 6.78711 7.59882 7.17692 7.20848C7.56673 6.81813 7.93764 6.5765 8.45888 6.37482C8.85119 6.22182 9.44197 6.04082 10.5286 5.99143C11.7034 5.9374 12.0563 5.92661 15.0312 5.92661C18.0061 5.92661 18.3594 5.93811 19.5352 5.99161C20.6218 6.04109 21.2114 6.22343 21.6049 6.375C22.1252 6.57668 22.4965 6.81884 22.8868 7.20866C23.2772 7.59847 23.5179 7.97027 23.7205 8.49061C23.8735 8.88292 24.0545 9.4737 24.1039 10.5603C24.1579 11.7361 24.1687 12.088 24.1687 15.0643C24.1687 18.0406 24.1579 18.3925 24.1039 19.5682C24.0544 20.6548 23.8725 21.2455 23.7205 21.6379C23.5179 22.1583 23.2766 22.5295 22.8868 22.919C22.497 23.3085 22.1252 23.5501 21.6049 23.7527C21.2126 23.9057 20.6218 24.0867 19.5352 24.1361C18.3604 24.1901 18.0075 24.2009 15.0312 24.2009C12.0549 24.2009 11.703 24.1901 10.5286 24.1361M10.4363 3.98629C9.24983 4.04032 8.43908 4.22845 7.73106 4.50396C6.99824 4.78847 6.37706 5.17017 5.75676 5.78948C5.13647 6.40879 4.75575 7.03007 4.47124 7.76377C4.19573 8.47225 4.0076 9.28254 3.95357 10.469C3.89865 11.6573 3.88608 12.0373 3.88608 15.0639C3.88608 18.0906 3.89865 18.4705 3.95357 19.6588C4.0076 20.8454 4.19573 21.6556 4.47124 22.3641C4.75575 23.0969 5.13656 23.7193 5.75676 24.3384C6.37697 24.9574 6.99735 25.3386 7.73106 25.6239C8.44042 25.8994 9.24983 26.0875 10.4363 26.1415C11.6253 26.1956 12.0045 26.209 15.0312 26.209C18.0579 26.209 18.4378 26.1965 19.6261 26.1415C20.8127 26.0875 21.6229 25.8994 22.3314 25.6239C23.0642 25.3386 23.6853 24.9577 24.3056 24.3384C24.9259 23.719 25.3058 23.0969 25.5912 22.3641C25.8667 21.6556 26.0557 20.8453 26.1088 19.6588C26.1629 18.4696 26.1754 18.0906 26.1754 15.0639C26.1754 12.0373 26.1629 11.6573 26.1088 10.469C26.0548 9.28245 25.8667 8.4718 25.5912 7.76377C25.3058 7.03096 24.925 6.40977 24.3056 5.78948C23.6863 5.16919 23.0642 4.78847 22.3322 4.50396C21.6229 4.22845 20.8126 4.03943 19.627 3.98629C18.4385 3.93199 18.0588 3.91879 15.0325 3.91879C12.0063 3.91879 11.6257 3.93136 10.4367 3.98629" fill="white"/>
<defs>
<radialGradient id="paint0_radial_5_77" cx="0" cy="0" r="1" gradientUnits="userSpaceOnUse" gradientTransform="translate(1.94157 29.3428) scale(38.0889)">
<stop offset="0.09" stop-color="#FA8F21"/>
<stop offset="0.78" stop-color="#D82D7E"/>
</radialGradient>
<radialGradient id="paint1_radial_5_77" cx="0" cy="0" r="1" gradientUnits="userSpaceOnUse" gradientTransform="translate(20.78 28.3795) scale(33.5186)">
<stop offset="0.64" stop-color="#8C3AAA" stop-opacity="0"/>
<stop offset="1" stop-color="#8C3AAA"/>
</radialGradient>
</defs>
</svg>
