<svg width="30" height="30" viewBox="0 0 30 30" fill="none" xmlns="http://www.w3.org/2000/svg">
<path d="M14.9922 22.287C13.5517 22.287 12.1435 21.8596 10.9458 21.0589C9.74806 20.2582 8.81453 19.1202 8.26328 17.7887C7.71202 16.4571 7.56778 14.992 7.84881 13.5785C8.12984 12.1649 8.82351 10.8665 9.8421 9.84743C10.8607 8.82833 12.1585 8.13432 13.5713 7.85315C14.9841 7.57199 16.4485 7.71629 17.7794 8.26782C19.1103 8.81935 20.2478 9.75334 21.0481 10.9517C21.8484 12.15 22.2755 13.5588 22.2755 15.0001C22.2734 16.932 21.5054 18.7843 20.14 20.1504C18.7746 21.5165 16.9232 22.2849 14.9922 22.287ZM14.9922 9.88704C13.9814 9.88704 12.9934 10.1869 12.153 10.7487C11.3125 11.3106 10.6575 12.1091 10.2707 13.0434C9.88391 13.9777 9.7827 15.0057 9.97989 15.9976C10.1771 16.9894 10.6638 17.9005 11.3785 18.6155C12.0932 19.3306 13.0038 19.8176 13.9952 20.0148C14.9865 20.2121 16.0141 20.1109 16.9479 19.7239C17.8817 19.3369 18.6799 18.6815 19.2414 17.8407C19.803 16.9999 20.1027 16.0113 20.1027 15.0001C20.1011 13.6445 19.5621 12.3449 18.6041 11.3864C17.646 10.4279 16.3471 9.88865 14.9922 9.88704Z" fill="#0C0A1F"/>
<path d="M14.9921 4.54009H14.9626C14.6745 4.53213 14.4013 4.41006 14.2032 4.2007C14.005 3.99133 13.898 3.71182 13.9057 3.42358L13.9709 1.0575C13.9824 0.77048 14.1056 0.499315 14.314 0.301797C14.5225 0.104278 14.7998 -0.00397423 15.0869 0.000111593C15.3748 0.00830173 15.6477 0.130476 15.8457 0.339812C16.0437 0.549147 16.1506 0.828533 16.1429 1.11663L16.0777 3.48271C16.0702 3.76575 15.9525 4.03469 15.7498 4.2322C15.547 4.42971 15.2751 4.54019 14.9921 4.54009Z" fill="#0C0A1F"/>
<path d="M23.1559 7.92531C22.9385 7.9253 22.7261 7.86001 22.5461 7.7379C22.3662 7.61578 22.227 7.44246 22.1466 7.24035C22.0662 7.03824 22.0482 6.81664 22.0951 6.60421C22.1419 6.39178 22.2514 6.1983 22.4093 6.0488L24.1285 4.42185C24.3384 4.2271 24.6166 4.12311 24.9027 4.13248C25.1888 4.14184 25.4597 4.26381 25.6564 4.47186C25.8531 4.67991 25.9598 4.95724 25.9533 5.24357C25.9468 5.5299 25.8276 5.80208 25.6216 6.00097L23.9025 7.62792C23.7012 7.81949 23.4338 7.92601 23.1559 7.92531Z" fill="#0C0A1F"/>
<path d="M28.8983 16.1627H28.867L26.5012 16.0957C26.3587 16.0917 26.2184 16.0596 26.0883 16.0013C25.9582 15.9429 25.8409 15.8596 25.743 15.7559C25.6451 15.6522 25.5686 15.5303 25.5178 15.397C25.467 15.2637 25.4429 15.1218 25.447 14.9792C25.4463 14.8351 25.4753 14.6924 25.532 14.56C25.5887 14.4275 25.672 14.3081 25.7767 14.2092C25.8814 14.1102 26.0052 14.0338 26.1406 13.9847C26.276 13.9355 26.4201 13.9147 26.5638 13.9235L28.9287 13.9905C29.2169 13.9945 29.4916 14.1129 29.6925 14.3196C29.8934 14.5263 30.004 14.8044 29.9999 15.0927C29.9959 15.3809 29.8776 15.6558 29.671 15.8568C29.4644 16.0578 29.1864 16.1684 28.8983 16.1644V16.1627Z" fill="#0C0A1F"/>
<path d="M24.7682 25.9826C24.6202 25.9827 24.4738 25.9525 24.3379 25.8939C24.2021 25.8353 24.0796 25.7495 23.9781 25.6418L22.3537 23.9209C22.2544 23.8174 22.1765 23.6953 22.1245 23.5615C22.0726 23.4278 22.0476 23.2851 22.0511 23.1416C22.0546 22.9982 22.0864 22.8568 22.1447 22.7257C22.2031 22.5946 22.2868 22.4764 22.391 22.3779C22.4953 22.2793 22.618 22.2024 22.7521 22.1515C22.8862 22.1007 23.029 22.0769 23.1724 22.0815C23.3157 22.0862 23.4567 22.1192 23.5873 22.1786C23.7178 22.238 23.8353 22.3228 23.9329 22.4279L25.5573 24.1496C25.7034 24.3038 25.801 24.4974 25.8381 24.7066C25.8752 24.9157 25.8503 25.1311 25.7663 25.3262C25.6823 25.5213 25.543 25.6874 25.3656 25.8041C25.1882 25.9208 24.9805 25.9828 24.7682 25.9826Z" fill="#0C0A1F"/>
<path d="M14.9052 30H14.8731C14.7305 29.996 14.5901 29.9638 14.46 29.9055C14.3298 29.8471 14.2124 29.7637 14.1145 29.6599C14.0166 29.5561 13.9401 29.4341 13.8894 29.3007C13.8386 29.1673 13.8147 29.0253 13.8188 28.8826L13.8875 26.5165C13.8958 26.2283 14.0182 25.9551 14.2278 25.7571C14.4374 25.5592 14.7171 25.4526 15.0052 25.4609C15.2933 25.4692 15.5664 25.5917 15.7642 25.8014C15.9621 26.0111 16.0686 26.2909 16.0603 26.5792L15.9917 28.9452C15.9835 29.228 15.8654 29.4964 15.6625 29.6934C15.4596 29.8903 15.188 30.0004 14.9052 30Z" fill="#0C0A1F"/>
<path d="M5.09447 25.86C4.87681 25.8603 4.66409 25.7951 4.48394 25.6728C4.30379 25.5506 4.16452 25.377 4.08421 25.1746C4.00391 24.9722 3.98627 24.7503 4.0336 24.5378C4.08093 24.3252 4.19104 24.1318 4.34962 23.9826L6.07051 22.3592C6.17346 22.2572 6.29576 22.1768 6.43022 22.1228C6.56467 22.0688 6.70856 22.0423 6.85342 22.0448C6.99828 22.0472 7.14118 22.0787 7.27372 22.1372C7.40625 22.1958 7.52574 22.2803 7.62516 22.3857C7.72458 22.4911 7.80191 22.6154 7.85261 22.7512C7.90331 22.887 7.92635 23.0315 7.92038 23.1764C7.91441 23.3212 7.87954 23.4634 7.81783 23.5945C7.75613 23.7257 7.66883 23.8431 7.56107 23.94L5.83932 25.5635C5.63828 25.7543 5.37159 25.8605 5.09447 25.86Z" fill="#0C0A1F"/>
<path d="M3.45095 16.0609H3.41879L1.05388 15.9905C0.911264 15.9862 0.770887 15.9539 0.640764 15.8953C0.510641 15.8367 0.393322 15.7531 0.295504 15.6492C0.197687 15.5453 0.121287 15.4231 0.0706686 15.2896C0.0200499 15.1562 -0.0037967 15.014 0.000490609 14.8714C0.00326797 14.7283 0.0345521 14.5872 0.0925108 14.4564C0.15047 14.3255 0.233938 14.2076 0.338026 14.1095C0.442115 14.0113 0.564732 13.9349 0.698696 13.8848C0.832659 13.8346 0.975277 13.8117 1.11819 13.8174L3.4831 13.8879C3.77124 13.8921 4.04588 14.0108 4.24661 14.2176C4.44733 14.4245 4.5577 14.7026 4.55344 14.9909C4.54918 15.2792 4.43062 15.554 4.22387 15.7548C4.01711 15.9556 3.73908 16.066 3.45095 16.0618V16.0609Z" fill="#0C0A1F"/>
<path d="M6.8527 7.90007C6.70452 7.90017 6.5579 7.8699 6.42187 7.81113C6.28585 7.75235 6.1633 7.66632 6.06179 7.55833L4.43999 5.83573C4.34211 5.73181 4.26566 5.60963 4.21498 5.47615C4.16431 5.34267 4.14041 5.20051 4.14464 5.05779C4.1532 4.76956 4.27585 4.49653 4.48561 4.29877C4.69538 4.10102 4.97507 3.99473 5.26316 4.00329C5.55125 4.01185 5.82414 4.13456 6.02181 4.34443L7.64447 6.0679C7.78954 6.22258 7.88624 6.41631 7.92268 6.62526C7.95912 6.83422 7.93371 7.04927 7.84957 7.24396C7.76544 7.43865 7.62625 7.60448 7.44913 7.72105C7.27201 7.83762 7.0647 7.89985 6.8527 7.90007Z" fill="#0C0A1F"/>
</svg>
