<svg width="30" height="30" viewBox="0 0 30 30" fill="none" xmlns="http://www.w3.org/2000/svg">
<path d="M25.5625 25.5625H21.1175V18.6C21.1175 16.94 21.0875 14.8025 18.805 14.8025C16.49 14.8025 16.135 16.6125 16.135 18.4775V25.5625H11.69V11.245H15.9575V13.2025H16.0175C16.8875 11.7175 18.5075 10.8275 20.2275 10.89C24.7325 10.89 25.565 13.8525 25.565 17.71L25.5625 25.56V25.5625ZM6.675 9.28754C5.99219 9.28426 5.33823 9.01172 4.85517 8.52913C4.37211 8.04653 4.09894 7.39285 4.095 6.71004C4.095 5.29504 5.26 4.13004 6.675 4.13004C8.09 4.13004 9.2525 5.29504 9.255 6.71004C9.255 8.12504 8.09 9.28754 6.675 9.28754ZM8.8975 25.5625H4.4475V11.245H8.8975V25.5625ZM27.775 3.71581e-05H2.2125C1.63288 -0.00332941 1.07534 0.222186 0.661058 0.627578C0.246772 1.03297 0.00921166 1.58548 0 2.16504V27.835C0.00921166 28.4146 0.246772 28.9671 0.661058 29.3725C1.07534 29.7779 1.63288 30.0034 2.2125 30H27.7775C28.3585 30.0047 28.9178 29.78 29.334 29.3746C29.7501 28.9692 29.9895 28.4159 30 27.835V2.16254C29.9895 1.5821 29.75 1.02936 29.3337 0.624759C28.9173 0.220159 28.358 -0.00349563 27.7775 0.00253698L27.775 3.71581e-05Z" fill="#0A66C2"/>
</svg>
