<svg width="30" height="30" viewBox="0 0 30 30" fill="none" xmlns="http://www.w3.org/2000/svg">
<path d="M25.5 0H4.5C2.01472 0 0 2.01472 0 4.5V25.5C0 27.9853 2.01472 30 4.5 30H25.5C27.9853 30 30 27.9853 30 25.5V4.5C30 2.01472 27.9853 0 25.5 0Z" fill="#ED1D24"/>
<path d="M25.0195 9.90236C24.7851 9.02345 24.0234 8.32033 23.1445 8.08595C21.1523 7.55861 9.14061 7.50001 6.85545 8.08595C5.97655 8.32033 5.21483 9.02345 4.98045 9.90236C4.45311 12.1289 4.39451 17.8125 4.98045 20.0977C5.21483 20.9766 5.97655 21.6797 6.85545 21.9141C8.96483 22.5 20.9765 22.5 23.1445 21.9141C24.0234 21.6797 24.7851 20.9766 25.0195 20.0977C25.5469 17.9883 25.5469 12.0703 25.0195 9.90236Z" fill="white"/>
<path d="M12.8906 11.8945V18.1055L18.3398 15" fill="#ED1D24"/>
</svg>
